<svg width="28" height="40" viewBox="0 0 28 40" fill="none" xmlns="http://www.w3.org/2000/svg">
<path d="M22.1575 25.5095L15.0126 32.0403C7.59591 36.8942 2.58853 26.9857 10.7492 22.061C12.3435 24.0214 15.0362 27.1274 17.6225 24.6828C20.2089 22.2381 17.4336 19.3565 15.6149 17.5968C26.9523 10.3102 15.6149 -6.23541 5.15127 2.46846C0.521809 6.63734 1.77365 13.4634 6.27321 17.1835C-4.29662 23.6907 -0.942615 40.319 12.0837 39.9883C17.5517 40.2718 22.8543 33.5165 26.6216 30.3751C29.8221 27.5289 25.2753 22.557 22.1575 25.5095ZM9.6154 7.34593C11.9774 5.12567 15.4259 8.8694 12.9931 11.0306L11.1389 12.7194C9.76893 11.3849 7.60772 9.14103 9.6154 7.34593Z" fill="url(#paint0_linear_3_14)"/>
<defs>
<linearGradient id="paint0_linear_3_14" x1="12.8978" y1="36.1327" x2="12.8978" y2="-2.47373" gradientUnits="userSpaceOnUse">
<stop stop-color="#E84E0F"/>
<stop offset="1" stop-color="#EC6726"/>
</linearGradient>
</defs>
</svg>
